<svg xmlns="http://www.w3.org/2000/svg" width="390" height="844" viewBox="0 0 390 844">
  <rect width="390" height="844" fill="#f5f0e8"/>
  <!-- Header -->
  <text x="20" y="70" font-family="sans-serif" font-size="26" font-weight="bold" fill="#1a1a1a">The Morning Club</text>
  <text x="20" y="110" font-family="sans-serif" font-size="18" font-weight="600" fill="#333">Companies</text>
  <!-- NVIDIA Card -->
  <rect x="15" y="135" width="360" height="150" rx="12" fill="white" stroke="#c8a84e" stroke-width="2"/>
  <rect x="30" y="155" width="50" height="50" rx="8" fill="#76b900"/>
  <text x="55" y="187" font-family="sans-serif" font-size="12" fill="white" text-anchor="middle" font-weight="bold">NVIDIA</text>
  <text x="95" y="175" font-family="sans-serif" font-size="18" font-weight="bold" fill="#1a1a1a">NVIDIA</text>
  <text x="95" y="195" font-family="sans-serif" font-size="14" fill="#666">NVDA</text>
  <rect x="280" y="155" width="70" height="26" rx="13" fill="#e0f5ee"/>
  <text x="315" y="173" font-family="sans-serif" font-size="12" fill="#2a9d6a" text-anchor="middle">Neutral</text>
  <text x="30" y="245" font-family="sans-serif" font-size="24" font-weight="bold" fill="#1a1a1a">$179.71</text>
  <text x="280" y="245" font-family="sans-serif" font-size="16" fill="#e53935">-1.98%</text>
  <!-- AMD Card -->
  <rect x="15" y="305" width="360" height="130" rx="12" fill="white" stroke="#c8a84e" stroke-width="2"/>
  <rect x="30" y="325" width="50" height="50" rx="8" fill="#1a1a1a"/>
  <text x="55" y="357" font-family="sans-serif" font-size="12" fill="white" text-anchor="middle" font-weight="bold">AMD</text>
  <text x="95" y="345" font-family="sans-serif" font-size="18" font-weight="bold" fill="#1a1a1a">AMD</text>
  <text x="95" y="365" font-family="sans-serif" font-size="14" fill="#666">AMD</text>
  <text x="30" y="410" font-family="sans-serif" font-size="24" font-weight="bold" fill="#1a1a1a">$196.39</text>
  <text x="280" y="410" font-family="sans-serif" font-size="16" fill="#e53935">-1.53%</text>
  <!-- Microsoft Card -->
  <rect x="15" y="455" width="360" height="130" rx="12" fill="white" stroke="#c8a84e" stroke-width="2"/>
  <text x="95" y="495" font-family="sans-serif" font-size="18" font-weight="bold" fill="#1a1a1a">Microsoft</text>
  <text x="95" y="515" font-family="sans-serif" font-size="14" fill="#666">MSFT</text>
  <text x="30" y="560" font-family="sans-serif" font-size="24" font-weight="bold" fill="#1a1a1a">$407.52</text>
  <text x="280" y="560" font-family="sans-serif" font-size="16" fill="#e53935">-0.77%</text>
  <!-- Bottom Nav -->
  <rect x="0" y="790" width="390" height="54" fill="white"/>
  <text x="65" y="820" font-family="sans-serif" font-size="11" fill="#0077b6" text-anchor="middle">Briefing</text>
  <text x="195" y="820" font-family="sans-serif" font-size="11" fill="#666" text-anchor="middle">Education</text>
  <text x="325" y="820" font-family="sans-serif" font-size="11" fill="#666" text-anchor="middle">Discussions</text>
</svg>